<svg xmlns="http://www.w3.org/2000/svg" viewBox="0 0 168.26 494.27">
    <defs>
        <style>.cls-1{fill:none;stroke:#efefef;stroke-linecap:round;stroke-linejoin:round;stroke-width:2px;}</style>
    </defs>
    <path class="cls-1"
                  d="M92.69,312.17a84.74,84.74,0,0,1,5.4,40c-.79,8-3.42,15.46-10.4,20.52-2,1.46-4.08,1.59-6,0a28.11,28.11,0,0,1-9.53-17.48c-2.22-13.37-1.18-26.39,4-39a4.31,4.31,0,0,0,0-2c-.1-.84-.32-1.67-.48-2.5a7.36,7.36,0,0,0-2.47,1c-2.42,2.41-4.49,5.21-7.07,7.42-10.66,9.11-27.29,8.86-35.37-3-6.5-9.55-6.28-20.43-.15-31.47a16.08,16.08,0,0,1,8.07-7.44c4.43-1.84,7.6-.8,11.32,3.29-2.63,3.42-5.8,6.51-7.7,10.25-3,5.95-1.83,11.94,2.38,15.41,6,5,11,5.55,17.91,1.88,5.38-2.84,10.32-7.46,10.33-13.86,0-7.59-.54-15.46-4.27-22.49-5.36-10.12-16.8-14.05-28.47-9.46-12.87,5.06-23,13.34-25.79,27.5a70.24,70.24,0,0,0-.5,22.92,60.94,60.94,0,0,0,16.93,33.88c4.81,5,11.14,8.54,16.85,12.64,12.82,9.2,24.25,19.7,31.44,34,1.94,3.86,3.22,8,5.05,12.7,1.24-1.33,2.59-2.14,2.94-3.25,5.45-17.47,16.93-30.13,31.52-40.54,7.43-5.3,15.12-10.57,21.38-17.1,9.55-10,14.83-22.19,16.38-36.32,1.37-12.48-.09-23.64-8.21-33.53-9-10.93-20.75-15.2-34.49-13.87-6.29.62-9.75,5.56-12.54,10.87A41.15,41.15,0,0,0,97,295.65c.55,7.11,6.22,11.76,12.73,14.46,5.93,2.45,11.41,1.28,16-3.43,4.79-4.94,5.05-10.5-.06-18.47-1.51-2.37-3.7-4.3-5.56-6.41,4.37-4.81,11.65-5.66,15.51-1,6.85,8.22,12.49,22.27,4.36,35.07-8,12.63-26.86,13.19-35.25,4.84-2.84-2.83-6-5.41-8.38-8.59-1.5-2-2.29-1.42-3.62-.41"/>
            <path class="cls-1"
                  d="M52.69,28.17c13.19,3.52,19.07,13.67,22.94,25.52a38.41,38.41,0,0,1,1.47,8.49c.08,1-.91,2-1.41,3a16.93,16.93,0,0,1-2.48-2c-3.22-3.79-6.06-7.94-9.59-11.42C56.82,45,48.47,44.12,39.17,45c-12.42,1.17-25,1-37.63,1.48C.44,52.3.86,53.24,6.69,56.67c6.05,3.57,7,6.73,4,13-8.46,18,1.77,36.62,21,39.66,8.4,1.33,15.43.15,21.48-5.72a14.88,14.88,0,0,0,3-5,27.21,27.21,0,0,0,1.07-5,27.58,27.58,0,0,1-4.5.46c-5-.23-10.09-.17-15-1.12-3.16-.62-5.15-3.52-6-6.84C29.4,77.65,29.94,64,41.23,59.27c8.3-3.45,16-.47,22.39,5,9.48,8,10.59,18.79,9.2,30.44-.76,6.32-4.43,10.85-8.27,14.85C53.38,121.17,41,131.45,26.68,139.16a12.45,12.45,0,0,1-1.49.51c-3.63,1.43-4.52.61-5.06-3.49-.78-5.89-.82-12.25-6-16.45a62.94,62.94,0,0,0-9-5.51,9.38,9.38,0,0,0-3-.55,19.09,19.09,0,0,0,.51,2.5c1.13,3.34,2.52,6.61,3.45,10,2.5,9.13-.07,18-1.45,27-2.68,17.47-4.47,35-.45,52.49,4.39,19.13,16.54,31.16,35.46,35.93,12.95,3.27,24-.61,31.49-11.91,4.78-7.24,8.58-14.84,10-23.5.28-1.62,1.44-3.09,2.6-5.47,1,2.86,1.92,4.86,2.29,7a52.62,52.62,0,0,0,14.66,27.89c8.2,8.44,18.94,8.33,29.35,5.46,10.82-3,19.54-9.87,25.84-19,3.14-4.54,4.47-10.44,6.15-15.87,4.92-16,3.31-31.88.26-48-1.82-9.61-2-19.63-2-29.46,0-4,2.47-8,3.76-12a22.49,22.49,0,0,0,.52-3c-1,.17-2,.26-3,.51-11.33,3-14,12.1-15.46,22-.63,4.39-1.46,5-5.55,3-10.38-5-19.34-12.06-27.95-19.56-4.08-3.55-7.76-7.57-11.53-11.46C87.31,93.88,92.07,66.63,111.56,59.8c12.15-4.27,24.27,2,24.62,16.37.06,2.67.49,5.44-.09,8-1.58,7-5.94,10.12-13.4,10a91,91,0,0,1-10-1c-3-.41-4,.61-3,3.52,2.53,7.43,7.58,11.49,15.49,12.57,13.23,1.8,25.18-3.35,31-14.08,4.43-8.19,4-16.58.53-25a32.6,32.6,0,0,1-1.48-4c-1.06-4-.4-7.22,4-9.05,3.75-1.57,6.64-4.08,7.57-8.44.71-3.32.56-3.2-2.56-3.11-9,.28-18,.4-27,0-7.52-.33-14.88-2.31-22.53,0-10.11,3-16.65,9.71-21.49,18.59a33.1,33.1,0,0,1-2.33,3.15c-1.78-9.1,1-16.22,4.39-23.12,4-8.23,10.21-14,19.46-16"/>
            <path class="cls-1"
                  d="M118.19,465.17c-4.22,1-7.79-.54-11-3-8.66-6.72-14.06-15.35-15-26.48a4.17,4.17,0,0,1,0-.5v-6.5c1.5,1.67,3.1,3.25,4.48,5,4.64,5.92,9.48,11.61,17,13.95a22.37,22.37,0,0,0,7,1.45c10.68-.31,21.34-1,32-1.37,3.49-.13,7,.39,10.5.4,1.33,0,3.67-.39,3.81-1,.37-1.71.45-4-.46-5.36a17.84,17.84,0,0,0-5.38-4.56c-5.64-3.59-6.42-5.84-3.46-12A29.61,29.61,0,0,0,159,402.23c-3.33-9.63-10.64-15.14-20.82-17.15-7.2-1.43-13.68-1.14-20.1,3a14.5,14.5,0,0,0-6.94,10.62c-.34,2.09.64,2.65,2.52,2.51,4.83-.36,9.67-1,14.49-.9,3.07.06,5.42,1.77,7.1,4.84,4.21,7.66,3.22,15.39-.28,22.46-3.74,7.57-15.19,10.25-23.31,6.59-12.16-5.47-19.1-19.5-16.54-33,1.07-5.65,3.18-10.81,7.08-15,11.24-11.9,23.6-22.48,38-30.52a10,10,0,0,1,3.49-1.46c2.43-.27,4.38-.56,4.65,3.43,1,13.84,4.77,19.43,18.24,23.26-1.06-3.38-1.6-6.51-3-9.21a26,26,0,0,1-2.33-15c.85-7.7,2.37-15.33,3.39-23,2-15.18,3.05-30.4-.52-45.49-3.51-14.85-12.13-25.87-26-32.47-9.87-4.71-20.29-6.17-30.41-1.39-6.89,3.24-11.25,9.65-14.48,16.4-2.65,5.54-6,10.93-6.17,17.45,0,1.38-1.1,2.73-2,4.76-.86-1.44-1.72-2.29-1.91-3.27-2.25-11.81-7.11-22.25-15.51-31-4-4.21-8.81-5.92-14.52-6.56-18.05-2-30.84,6.66-40.83,20.23-3.17,4.3-4.52,10.09-6.12,15.38-4.84,15.95-3.34,31.87-.27,48,1.82,9.62,1.81,19.62,2,29.46.07,3-1.87,6-2.82,9-.61,1.94-1.08,3.92-1.88,6.84,7.55-1.94,13.12-5,15.74-11.4a45.52,45.52,0,0,0,3-13c.33-3.51,1.89-3.61,4.12-2.44,4.76,2.5,9.85,4.7,13.93,8.07,9.64,8,19,16.33,28,24.94s9.6,26.61,2.05,36.94c-6.2,8.47-14.43,12.19-25,11.07-5.44-.57-8.89-4.14-10.76-8.18a24.54,24.54,0,0,1-1.24-18.89c1.88-5.31,5.48-8.1,11-7.95,4,.1,8,.6,12,1,2.86.25,3.42-.7,2.57-3.53-3-9.95-9.81-12.8-18.08-13.32-14.69-.92-26,5.33-31.21,20.94-1.83,5.48-.69,12.1,1.72,17.9.49,1.17,1.09,2.31,1.48,3.51,1.73,5.25,1,7.65-4,10.42-3.63,2-6.36,4.63-7.37,8.59-.45,1.76-.85,3.51,2.92,3.21a250.44,250.44,0,0,1,27-.18c11.4.33,23.22,2.94,32.92-5.63,3.78-3.33,6.79-7.55,10-11.44a27.53,27.53,0,0,0,2.26-3.89c2.13,3.33,1.89,12.7-.79,17.88-5,9.62-10.49,18.87-23,20,4.84,7,10.4,7.62,24.53,2.15,0,2.38.54,4.58-.1,6.36-2.39,6.68.32,12,4.15,17,2.24,2.91,4.75,2.78,7.43,0,5.13-5.25,4.67-11.93,4.5-18.49,0-1.34-.32-2.67-.48-4,1.5.33,3,.57,4.49,1,6.31,1.93,12.56,3.07,18.48-1.06.54-.37.69-1.29,1-2"/>
            <path class="cls-1"
                  d="M83.69,87.67c2.66,5.33,5.2,10.74,8,16a65.14,65.14,0,0,0,17,20.5c8.11,6.41,16.16,12.91,24.53,19,9.81,7.1,14.69,17.32,19,28.06,3.42,8.57,3.32,17.52,3,26.5-.46,12.36-10.73,26.09-20,29.62-5.43,2.08-10.5,4.54-16.53,5-10.88.85-18.38-6.32-21.44-17.65a90.86,90.86,0,0,1-2-13c-.72-6,4.58-13.42,10.93-16.57,5.88-2.91,11.28-3.12,16.53,1.07s6.47,8.77,3.46,15c-1.37,2.81-3.31,5.34-4.94,8-.89,1.46-1.68,3-2.51,4.49,2.16,1,4.39,2.94,6.49,2.81,5-.3,9.43-2.37,12-7.29,5.41-10.22,7.51-20.21,1.08-31.09-6.79-11.49-23.52-13.36-33.05-6.34-3.56,2.63-6.34,6.3-9.6,9.38a18.17,18.17,0,0,1-3.46,2c0-1.33-.37-2.8,0-4a86.66,86.66,0,0,0,5-34.52c-.44-7.86-2.63-15.23-8.11-20.9-4.74-4.89-5.94-5.45-11.3,0s-7.29,12.44-7.57,19.9c-.4,10.62,0,21.2,3,31.5.35,1.2,1.12,2.3,1.44,3.51a39.1,39.1,0,0,1,.63,4.34l-1.29.36c-3.93-3.73-7.41-8.18-11.89-11.08-14.4-9.31-32.55-4.57-37.23,14.42-2.45,9.95,2.05,18.94,7.9,26.89,2,2.7,10.34,3.57,12.92,2.06,3.22-1.88,3.1-2.38.55-5.54-2.25-2.8-4.61-5.73-5.94-9-2.7-6.64-.89-11.94,4.91-15.92,4.4-3,12.45-3.26,17.92,1.05,2.36,1.87,4,4.65,6.07,6.91,4.19,4.56,2.23,10.15,1.7,15-.58,5.3-2.94,10.58-5.33,15.48-2.89,5.94-8,8.47-14.88,8.65-17.15.45-34.57-13.07-37.52-27.6a67.62,67.62,0,0,1-1.27-19.52c1.26-15.11,7.38-27.73,17.45-38.32,5.42-5.71,12.36-10,18.87-14.62,15.4-10.88,27.69-24.12,33.49-42.53a6.39,6.39,0,0,1,1-1.51"/>
            <path class="cls-1"
                  d="M116.69,29.67c-3.34-6.24-6.93-7.94-14-6.49-3.56.73-7.08,1.6-11.5,2.6,0-1.6-.54-3.8.09-5.58,2.37-6.67-.06-12.07-4.14-17-2.5-3-4.82-2.86-7.45,0-5,5.37-5.1,11.8-4,18.5.23,1.46.32,2.94.53,4.9-15.31-5.92-20.53-5.39-25.52,2.1"/>
</svg>