<svg height="512" viewBox="0 0 91 91" width="512" xmlns="http://www.w3.org/2000/svg"><g><path d="m64.9 78.6c-1-.6-2.3-.4-2.9.6s-.4 2.3.6 2.9c1.2.8 2.6 1.2 4.1 1.2s3-.5 4.2-1.3c.9-.7 1.2-2 .5-2.9s-2-1.2-2.9-.5c-1.1.6-2.6.7-3.6 0z"/><path d="m74.6 58.7c1.2 0 2.1-.9 2.1-2.1 0-1-.7-1.8-1.7-2-.9-13-9.9-22.8-22-23.8l-.1-3.6c0-1.1-1-2.1-2.1-2.1h-1v-4.6c0-1.2-.9-2.1-2.1-2.1h-5.7v-3.3c1.2-.4 2.3-1 3.2-1.9h13.3c2.8 0 5.1-2.3 5.1-5.1s-2.2-5.1-5.1-5.1h-13c-1.4-1.6-3.4-2.6-5.6-2.6s-4.2 1-5.6 2.6h-13c-2.8 0-5.1 2.3-5.1 5.1s2.3 5.1 5.1 5.1h13.3c.9.9 2 1.5 3.2 1.9v3.3h-6c-1.2 0-2.1.9-2.1 2.1s.9 2.1 2.1 2.1h13.9v2.5h-16.4c-1.2 0-2.1.9-2.1 2.1v3.5h-10.9c0-1.1-.9-2-2.1-2s-2.1.9-2.1 2.1v21.4c0 1.2.9 2.1 2.1 2.1s2.1-.9 2.1-2.1v-2.3h12.6c2.7 3.3 6.8 5.3 11.2 5.3 4.3 0 8.4-2 11.2-5.3 2.9.1 5.3 2.1 6.1 4.7-1 .1-1.8 1-1.8 2 0 1.2.9 2.1 2.1 2.1h7c-2.3 2.7-10.7 12.8-10.7 18.7 0 7.1 5.7 12.8 12.8 12.8s12.8-5.7 12.8-12.8c0-6-8.4-16-10.7-18.7zm-27.2-51.5h11.2c.5 0 1 .4 1 1 0 .5-.4 1-1 1h-11.2c.1-.4.1-.7.1-1.1 0-.3-.1-.6-.1-.9zm-26.1 2c-.5 0-1-.4-1-1 0-.5.4-1 1-1h11.2c0 .3-.1.5-.1.8 0 .4.1.8.1 1.1h-11.2zm15.3-1.2c0-1.8 1.5-3.3 3.3-3.3s3.3 1.5 3.3 3.3-1.5 3.3-3.3 3.3-3.3-1.4-3.3-3.3zm25.1 46.5c-1-5-5.4-8.8-10.7-8.8h-.8c-.7 0-1.3.3-1.7.9-1.9 2.8-5.1 4.4-8.4 4.4s-6.5-1.7-8.4-4.4c-.4-.6-1-.9-1.7-.9h-13.7v-10.8h13c1.2 0 2.1-.9 2.1-2.1v-3.5h16.4 1l.1 3.5c0 1.1 1 2.1 2.1 2.1 10.7 0 19 8.3 19.9 19.6zm13.6 22.9c0 4.7-3.9 8.6-8.6 8.6s-8.6-3.9-8.6-8.6c0-3.3 4.8-10.1 8.6-14.7 3.8 4.6 8.6 11.5 8.6 14.7z"/></g></svg>