<svg id="Layer_1" enable-background="new 0 0 511.995 511.995" height="512" viewBox="0 0 511.995 511.995" width="512" xmlns="http://www.w3.org/2000/svg"><g><path d="m362.997 124.988h-214c-8.284 0-15 6.716-15 15s6.716 15 15 15h214c8.284 0 15-6.716 15-15s-6.716-15-15-15z"/><path d="m362.997 184.989h-214c-8.284 0-15 6.716-15 15s6.716 15 15 15h92v193c0 8.284 6.716 15 15 15s15-6.716 15-15v-193h92c8.284 0 15-6.716 15-15s-6.716-15-15-15z"/><path d="m255.997 0c-141.157 0-255.997 114.84-255.997 255.997 0 141.158 114.84 255.998 255.997 255.998 141.158 0 255.998-114.84 255.998-255.998 0-141.157-114.84-255.997-255.998-255.997zm213.354 330.527-10.578-4.504c-7.622-3.246-16.432.303-19.677 7.926-3.245 7.622.303 16.432 7.926 19.677l10.549 4.491c-8.584 16.876-19.228 32.533-31.596 46.646l-8.05-8.05c-5.857-5.858-15.355-5.858-21.213 0s-5.858 15.355 0 21.213l8.049 8.049c-15.477 13.562-32.811 25.051-51.571 34.025l-4.236-10.662c-3.059-7.699-11.781-11.461-19.479-8.401-7.699 3.059-11.46 11.78-8.401 19.479l4.246 10.687c-17.298 5.588-35.498 9.141-54.323 10.381v-11.484c0-8.284-6.716-15-15-15s-15 6.716-15 15v11.485c-20.723-1.365-40.69-5.533-59.528-12.133l4.503-10.577c3.245-7.623-.303-16.432-7.925-19.677-7.623-3.243-16.433.303-19.677 7.925l-4.491 10.548c-16.876-8.584-32.533-19.228-46.646-31.595l8.049-8.049c5.858-5.858 5.858-15.355 0-21.213-5.857-5.858-15.355-5.858-21.213 0l-8.049 8.049c-13.562-15.477-25.051-32.81-34.025-51.571l10.663-4.236c7.699-3.059 11.46-11.78 8.401-19.479s-11.778-11.46-19.479-8.401l-10.688 4.246c-5.588-17.298-9.142-35.499-10.382-54.324h11.485c8.284 0 15-6.716 15-15s-6.716-15-15-15h-11.485c1.365-20.724 5.533-40.691 12.132-59.529l10.579 4.504c1.917.816 3.909 1.203 5.869 1.203 5.833 0 11.379-3.423 13.808-9.128 3.245-7.622-.303-16.432-7.926-19.677l-10.55-4.491c8.584-16.876 19.228-32.534 31.595-46.647l8.051 8.051c2.929 2.929 6.768 4.393 10.606 4.393s7.678-1.465 10.607-4.394c5.857-5.858 5.857-15.355 0-21.213l-8.051-8.05c15.477-13.562 32.811-25.052 51.571-34.026l4.237 10.665c2.337 5.882 7.978 9.465 13.944 9.465 1.843 0 3.717-.342 5.534-1.064 7.699-3.059 11.46-11.78 8.401-19.479l-4.247-10.69c17.298-5.588 35.499-9.141 54.325-10.381v11.487c0 8.284 6.716 15 15 15s15-6.716 15-15v-11.487c20.724 1.365 40.691 5.533 59.529 12.133l-4.504 10.579c-3.245 7.623.303 16.432 7.925 19.677 1.917.816 3.909 1.203 5.869 1.203 5.833 0 11.379-3.423 13.808-9.128l4.492-10.551c16.876 8.584 32.534 19.229 46.647 31.596l-8.051 8.051c-5.858 5.858-5.858 15.355 0 21.213 2.929 2.929 6.768 4.394 10.606 4.394s7.678-1.464 10.606-4.394l8.051-8.051c13.562 15.477 25.051 32.811 34.025 51.572l-10.664 4.237c-7.699 3.059-11.46 11.78-8.401 19.479 2.337 5.882 7.978 9.465 13.944 9.465 1.843 0 3.718-.342 5.534-1.064l10.689-4.247c5.588 17.298 9.141 35.499 10.381 54.325h-11.486c-8.284 0-15 6.716-15 15s6.716 15 15 15h11.486c-1.361 20.723-5.53 40.691-12.13 59.528z"/></g></svg>